WWE NO WAY OUT PPV 2012 HDTV Bzingaz with preshow...enjoy...comment on quality and seed..

Details:

screenshots:
 
http://image.bayimg.com/lapflaadd.jpg
 
http://image.bayimg.com/lapfmaadd.jpg
 
http://image.bayimg.com/lapfnaadd.jpg

WWE No Way Out PPV 2012 Bzingaz.mp4

Format                           : MPEG-4
Format profile                   : Base Media
Codec ID                         : isom
File size                        : 560 MiB
Duration                         : 2h 50mn
Overall bit rate                 : 459 Kbps


Video
ID                               : 1
Format                           : AVC
Format/Info                      : Advanced Video Codec
Format profile                   : Baseline@L3.0
Format settings, CABAC           : No
Format settings, ReFrames        : 3 frames
Codec ID                         : avc1
Codec ID/Info                    : Advanced Video Coding
Duration                         : 2h 50mn
Bit rate mode                    : Variable
Bit rate                         : 360 Kbps
Width                            : 512 pixels
Height                           : 288 pixels
Display aspect ratio             : 16:9
Frame rate mode                  : Constant
Frame rate                       : 25.000 fps
Color space                      : YUV
Chroma subsampling               : 4:2:0
Bit depth                        : 8 bits
Scan type                        : Progressive
Bits/(Pixel*Frame)               : 0.098
Stream size                      : 437 MiB (78%)
Writing library                  : x264 core 120 r2M 0f692db


Audio
ID                               : 2
Format                           : AAC
Format/Info                      : Advanced Audio Codec
Format profile                   : LC
Codec ID                         : 40
Duration                         : 2h 50mn
Bit rate mode                    : Variable
Bit rate                         : 96.0 Kbps
Channel(s)                       : 2 channels
Channel positions                : Front: L R
Sampling rate                    : 44.1 KHz
Compression mode                 : Lossy
Stream size                      : 117 MiB (21%)
